
<svg width="229" height="233" viewBox="0 0 229 233" fill="none" xmlns="http://www.w3.org/2000/svg">
<circle cx="82.1517" cy="150.77" r="80.5503" stroke="#FAFAFA" stroke-width="3.2028"/>
<circle cx="82.3119" cy="152.051" r="60.2126" stroke="#FAFAFA" stroke-width="3.2028"/>
<circle cx="82.1518" cy="150.61" r="37.9531" stroke="#FAFAFA" stroke-width="3.2028"/>
<circle cx="146.848" cy="82.2301" r="80.5503" stroke="#FAFAFA" stroke-width="3.2028"/>
<circle cx="147.008" cy="83.5112" r="60.2126" stroke="#FAFAFA" stroke-width="3.2028"/>
<mask id="path-6-inside-1_3_31" fill="white">
<path d="M176.27 108.508C179.741 104.644 182.418 100.134 184.147 95.2361C185.876 90.3379 186.624 85.1472 186.347 79.9602C186.069 74.7732 184.773 69.6916 182.533 65.0055C180.292 60.3194 177.15 56.1205 173.286 52.6487C169.422 49.1768 164.913 46.5 160.014 44.771C155.116 43.042 149.925 42.2947 144.738 42.5718C139.551 42.8488 134.47 44.1448 129.784 46.3858C125.098 48.6267 120.899 51.7687 117.427 55.6324L120.057 57.996C123.219 54.4777 127.042 51.6166 131.309 49.576C135.577 47.5354 140.204 46.3553 144.927 46.103C149.65 45.8507 154.377 46.5312 158.837 48.1056C163.298 49.68 167.404 52.1176 170.922 55.279C174.441 58.4405 177.302 62.2639 179.342 66.5311C181.383 70.7983 182.563 75.4256 182.815 80.1488C183.068 84.8721 182.387 89.5988 180.813 94.059C179.238 98.5193 176.801 102.626 173.639 106.144L176.27 108.508Z"/>
</mask>
<path d="M176.27 108.508C179.741 104.644 182.418 100.134 184.147 95.2361C185.876 90.3379 186.624 85.1472 186.347 79.9602C186.069 74.7732 184.773 69.6916 182.533 65.0055C180.292 60.3194 177.15 56.1205 173.286 52.6487C169.422 49.1768 164.913 46.5 160.014 44.771C155.116 43.042 149.925 42.2947 144.738 42.5718C139.551 42.8488 134.47 44.1448 129.784 46.3858C125.098 48.6267 120.899 51.7687 117.427 55.6324L120.057 57.996C123.219 54.4777 127.042 51.6166 131.309 49.576C135.577 47.5354 140.204 46.3553 144.927 46.103C149.65 45.8507 154.377 46.5312 158.837 48.1056C163.298 49.68 167.404 52.1176 170.922 55.279C174.441 58.4405 177.302 62.2639 179.342 66.5311C181.383 70.7983 182.563 75.4256 182.815 80.1488C183.068 84.8721 182.387 89.5988 180.813 94.059C179.238 98.5193 176.801 102.626 173.639 106.144L176.27 108.508Z" stroke="#FAFAFA" stroke-width="6.40559" mask="url(#path-6-inside-1_3_31)"/>
</svg>
