<svg width="229" height="233" viewBox="0 0 229 233" fill="none" xmlns="http://www.w3.org/2000/svg">
<circle cx="82.1517" cy="150.692" r="80.5503" stroke="#011446" stroke-width="3.2028"/>
<circle cx="82.3119" cy="151.973" r="60.2126" stroke="#011446" stroke-width="3.2028"/>
<circle cx="82.1518" cy="150.531" r="37.9531" stroke="#011446" stroke-width="3.2028"/>
<circle cx="146.848" cy="82.1517" r="80.5503" stroke="#011446" stroke-width="3.2028"/>
<circle cx="147.008" cy="83.4329" r="60.2126" stroke="#011446" stroke-width="3.2028"/>
<mask id="path-6-inside-1_8_2" fill="white">
<path d="M176.27 108.429C179.741 104.566 182.418 100.056 184.147 95.1578C185.876 90.2596 186.624 85.0688 186.347 79.8818C186.069 74.6948 184.773 69.6132 182.533 64.9271C180.292 60.241 177.15 56.0421 173.286 52.5703C169.422 49.0985 164.913 46.4216 160.014 44.6926C155.116 42.9636 149.925 42.2163 144.738 42.4934C139.551 42.7705 134.47 44.0665 129.784 46.3074C125.098 48.5484 120.899 51.6904 117.427 55.554L120.057 57.9176C123.219 54.3994 127.042 51.5383 131.309 49.4977C135.577 47.4571 140.204 46.2769 144.927 46.0246C149.65 45.7723 154.377 46.4528 158.837 48.0273C163.298 49.6017 167.404 52.0392 170.922 55.2006C174.441 58.3621 177.302 62.1856 179.342 66.4527C181.383 70.7199 182.563 75.3472 182.815 80.0705C183.068 84.7937 182.387 89.5204 180.813 93.9807C179.238 98.4409 176.801 102.547 173.639 106.066L176.27 108.429Z"/>
</mask>
<path d="M176.27 108.429C179.741 104.566 182.418 100.056 184.147 95.1578C185.876 90.2596 186.624 85.0688 186.347 79.8818C186.069 74.6948 184.773 69.6132 182.533 64.9271C180.292 60.241 177.15 56.0421 173.286 52.5703C169.422 49.0985 164.913 46.4216 160.014 44.6926C155.116 42.9636 149.925 42.2163 144.738 42.4934C139.551 42.7705 134.47 44.0665 129.784 46.3074C125.098 48.5484 120.899 51.6904 117.427 55.554L120.057 57.9176C123.219 54.3994 127.042 51.5383 131.309 49.4977C135.577 47.4571 140.204 46.2769 144.927 46.0246C149.65 45.7723 154.377 46.4528 158.837 48.0273C163.298 49.6017 167.404 52.0392 170.922 55.2006C174.441 58.3621 177.302 62.1856 179.342 66.4527C181.383 70.7199 182.563 75.3472 182.815 80.0705C183.068 84.7937 182.387 89.5204 180.813 93.9807C179.238 98.4409 176.801 102.547 173.639 106.066L176.27 108.429Z" stroke="#011446" stroke-width="6.40559" mask="url(#path-6-inside-1_8_2)"/>
</svg>
